name analog
datacolumns 19
datarows 57
range 0.812 0.84
endheader
time	ground_force_vx	ground_force_vy	ground_force_vz	ground_force_px	ground_force_py	ground_force_pz	l_ground_force_vx	l_ground_force_vy	l_ground_force_vz	l_ground_force_px	l_ground_force_py	l_ground_force_pz	ground_torque_x	ground_torque_y	ground_torque_z	l_ground_torque_x	l_ground_torque_y	l_ground_torque_z
0.812	-0.0	-0.0	-0.0	-0.0	-0.0	-0.0	0.0926778316497802	5.669731140136719	-672.9454345703125	-0.0	-0.0	-0.0	-0.0	-0.0	-0.0	194232.828125	-42524.9609375	-2630.182861328125
0.8125	-0.0	-0.0	-0.0	-0.0	-0.0	-0.0	0.6209754943847656	6.889091491699219	-679.2972412109375	-0.0	-0.0	-0.0	-0.0	-0.0	-0.0	196817.5	-43189.60546875	-2533.439208984375
0.8130000000000001	-0.0	-0.0	-0.0	-0.0	-0.0	-0.0	0.8408993482589722	7.083202838897705	-686.6976318359375	-0.0	-0.0	-0.0	-0.0	-0.0	-0.0	198710.671875	-43817.890625	-2421.70849609375
0.8135	-0.0	-0.0	-0.0	-0.0	-0.0	-0.0	0.3548431396484375	7.733458518981934	-694.0296020507812	-0.0	-0.0	-0.0	-0.0	-0.0	-0.0	200496.671875	-44012.65234375	-2504.989501953125
0.8140000000000001	-0.0	-0.0	-0.0	-0.0	-0.0	-0.0	0.2413701862096786	7.0623040199279785	-697.2694091796875	-0.0	-0.0	-0.0	-0.0	-0.0	-0.0	202136.296875	-44032.15234375	-2660.669921875
0.8145	-0.0	-0.0	-0.0	-0.0	-0.0	-0.0	-0.2414732724428177	6.82202672958374	-700.5792236328125	-0.0	-0.0	-0.0	-0.0	-0.0	-0.0	203139.65625	-44411.5	-2653.923828125
0.8150000000000001	-0.0	-0.0	-0.0	-0.0	-0.0	-0.0	-1.6458873748779297	5.780353546142578	-703.2755737304688	-0.0	-0.0	-0.0	-0.0	-0.0	-0.0	204255.484375	-44095.21875	-3026.490478515625
0.8155	-0.0	-0.0	-0.0	-0.0	-0.0	-0.0	-3.884857654571533	4.568400859832764	-707.8264770507812	-0.0	-0.0	-0.0	-0.0	-0.0	-0.0	204885.78125	-43957.03515625	-3623.63330078125
0.8160000000000001	-0.0	-0.0	-0.0	-0.0	-0.0	-0.0	-6.830730438232422	2.95444917678833	-710.185791015625	-0.0	-0.0	-0.0	-0.0	-0.0	-0.0	205853.109375	-43595.703125	-4209.22705078125
0.8165	-0.0	-0.0	-0.0	-0.0	-0.0	-0.0	-9.43032932281494	1.1723140478134155	-715.2533569335938	-0.0	-0.0	-0.0	-0.0	-0.0	-0.0	206813.484375	-43360.84765625	-4878.498046875
0.8170000000000001	-0.0	-0.0	-0.0	-0.0	-0.0	-0.0	-11.801132202148438	-0.6208381652832031	-718.7235107421875	-0.0	-0.0	-0.0	-0.0	-0.0	-0.0	208337.375	-43138.47265625	-5826.17724609375
0.8175	-0.0	-0.0	-0.0	-0.0	-0.0	-0.0	-14.373634338378906	-2.143657684326172	-725.88623046875	-0.0	-0.0	-0.0	-0.0	-0.0	-0.0	210424.953125	-43263.17578125	-6493.60693359375
0.8180000000000001	-0.0	-0.0	-0.0	-0.0	-0.0	-0.0	-15.526723861694336	-3.2010793685913086	-735.0584106445312	-0.0	-0.0	-0.0	-0.0	-0.0	-0.0	213048.296875	-43646.97265625	-6760.8154296875
0.8185	-0.0	-0.0	-0.0	-0.0	-0.0	-0.0	-16.05446434020996	-3.8646180629730233	-743.1907348632812	-0.0	-0.0	-0.0	-0.0	-0.0	-0.0	215681.265625	-44357.9453125	-6931.35400390625
0.8190000000000001	-0.0	-0.0	-0.0	-0.0	-0.0	-0.0	-15.723467826843262	-4.306199073791504	-752.1823120117188	-0.0	-0.0	-0.0	-0.0	-0.0	-0.0	218037.0625	-44684.99609375	-6893.63916015625
0.8195	-0.0	-0.0	-0.0	-0.0	-0.0	-0.0	-15.634794235229492	-3.974475860595703	-759.8468627929688	-0.0	-0.0	-0.0	-0.0	-0.0	-0.0	221029.984375	-45174.55859375	-6902.08544921875
0.8200000000000001	-0.0	-0.0	-0.0	-0.0	-0.0	-0.0	-15.301722526550291	-3.4644157886505127	-765.8605346679688	-0.0	-0.0	-0.0	-0.0	-0.0	-0.0	222968.796875	-45490.45703125	-7005.2080078125
0.8205	-0.0	-0.0	-0.0	-0.0	-0.0	-0.0	-15.12269115447998	-2.028083562850952	-772.93603515625	-0.0	-0.0	-0.0	-0.0	-0.0	-0.0	225402.921875	-46131.6640625	-6937.54541015625
0.8210000000000001	-0.0	-0.0	-0.0	-0.0	-0.0	-0.0	-14.88161277770996	-0.3951851427555084	-779.1467895507812	-0.0	-0.0	-0.0	-0.0	-0.0	-0.0	227281.140625	-46465.69921875	-6952.0693359375
0.8215	-0.0	-0.0	-0.0	-0.0	-0.0	-0.0	-14.103650093078612	1.3710246086120603	-782.185546875	-0.0	-0.0	-0.0	-0.0	-0.0	-0.0	228918.125	-47250.53515625	-6839.712890625
0.8220000000000001	-0.0	-0.0	-0.0	-0.0	-0.0	-0.0	-13.572750091552734	3.1590490341186523	-786.03125	-0.0	-0.0	-0.0	-0.0	-0.0	-0.0	230685.640625	-47801.8671875	-6549.97900390625
0.8225	-0.0	-0.0	-0.0	-0.0	-0.0	-0.0	-13.061283111572266	5.080145835876465	-791.5267333984375	-0.0	-0.0	-0.0	-0.0	-0.0	-0.0	232168.515625	-48498.91015625	-6519.0712890625
0.8230000000000001	-0.0	-0.0	-0.0	-0.0	-0.0	-0.0	-12.441449165344238	5.873867034912109	-795.1984252929688	-0.0	-0.0	-0.0	-0.0	-0.0	-0.0	233628.40625	-49016.00390625	-6266.1494140625
0.8235	-0.0	-0.0	-0.0	-0.0	-0.0	-0.0	-12.020713806152344	7.13297700881958	-797.0266723632812	-0.0	-0.0	-0.0	-0.0	-0.0	-0.0	234814.328125	-49530.78515625	-6095.21435546875
0.8240000000000001	-0.0	-0.0	-0.0	-0.0	-0.0	-0.0	-11.198853492736816	7.285483837127685	-798.0740356445312	-0.0	-0.0	-0.0	-0.0	-0.0	-0.0	235796.859375	-49994.16796875	-5768.294921875
0.8245	-0.0	-0.0	-0.0	-0.0	-0.0	-0.0	-11.044771194458008	7.220436096191406	-797.7225341796875	-0.0	-0.0	-0.0	-0.0	-0.0	-0.0	235800.125	-50160.1796875	-5530.7158203125
0.8250000000000001	-0.0	-0.0	-0.0	-0.0	-0.0	-0.0	-11.35498046875	6.513825416564941	-798.16064453125	-0.0	-0.0	-0.0	-0.0	-0.0	-0.0	235657.5	-50264.5390625	-5605.5419921875
0.8255	-0.0	-0.0	-0.0	-0.0	-0.0	-0.0	-11.75403118133545	6.315147876739502	-797.287109375	-0.0	-0.0	-0.0	-0.0	-0.0	-0.0	235139.53125	-50533.7265625	-5516.7763671875
0.8260000000000001	-0.0	-0.0	-0.0	-0.0	-0.0	-0.0	-11.35498046875	5.630398750305176	-794.9310302734375	-0.0	-0.0	-0.0	-0.0	-0.0	-0.0	234581.828125	-50570.43359375	-5323.8154296875
0.8265	-0.0	-0.0	-0.0	-0.0	-0.0	-0.0	-10.312634468078612	5.0343403816223145	-789.25732421875	-0.0	-0.0	-0.0	-0.0	-0.0	-0.0	233686.578125	-50630.58203125	-4952.53662109375
0.8270000000000001	-0.0	-0.0	-0.0	-0.0	-0.0	-0.0	-10.15732765197754	4.725152969360352	-787.68603515625	-0.0	-0.0	-0.0	-0.0	-0.0	-0.0	233025.984375	-50622.38671875	-4818.98486328125
0.8275	-0.0	-0.0	-0.0	-0.0	-0.0	-0.0	-10.046297073364258	3.908036470413208	-785.8538208007812	-0.0	-0.0	-0.0	-0.0	-0.0	-0.0	232657.359375	-50514.95703125	-4589.11328125
0.8280000000000001	-0.0	-0.0	-0.0	-0.0	-0.0	-0.0	-10.401443481445312	3.136039972305298	-784.4559936523438	-0.0	-0.0	-0.0	-0.0	-0.0	-0.0	232352.796875	-50563.921875	-4589.7646484375
0.8285	-0.0	-0.0	-0.0	-0.0	-0.0	-0.0	-10.357378959655762	1.9874998331069944	-782.6223754882812	-0.0	-0.0	-0.0	-0.0	-0.0	-0.0	231837.203125	-50678.28515625	-4471.21142578125
0.8290000000000001	-0.0	-0.0	-0.0	-0.0	-0.0	-0.0	-10.99946117401123	1.1259331703186035	-781.75048828125	-0.0	-0.0	-0.0	-0.0	-0.0	-0.0	231751.296875	-50917.8046875	-4612.935546875
0.8295	-0.0	-0.0	-0.0	-0.0	-0.0	-0.0	-11.932013511657717	0.2649650573730469	-782.279052734375	-0.0	-0.0	-0.0	-0.0	-0.0	-0.0	231700.46875	-51099.7421875	-4658.18798828125
0.8300000000000001	-0.0	-0.0	-0.0	-0.0	-0.0	-0.0	-12.286911964416504	-0.9919866323471068	-782.9706420898438	-0.0	-0.0	-0.0	-0.0	-0.0	-0.0	231787.09375	-51569.8359375	-4784.9013671875
0.8305	-0.0	-0.0	-0.0	-0.0	-0.0	-0.0	-12.596931457519531	-1.391868233680725	-785.7593994140625	-0.0	-0.0	-0.0	-0.0	-0.0	-0.0	232569.96875	-51731.9921875	-4770.5703125
0.8310000000000001	-0.0	-0.0	-0.0	-0.0	-0.0	-0.0	-12.95055103302002	-2.250375747680664	-786.2894287109375	-0.0	-0.0	-0.0	-0.0	-0.0	-0.0	233112.390625	-52332.30078125	-4800.31982421875
0.8315	-0.0	-0.0	-0.0	-0.0	-0.0	-0.0	-12.508220672607422	-2.1842522621154785	-791.0056762695312	-0.0	-0.0	-0.0	-0.0	-0.0	-0.0	233889.453125	-52889.14453125	-4681.7666015625
0.8320000000000001	-0.0	-0.0	-0.0	-0.0	-0.0	-0.0	-12.753288269042969	-1.812811493873596	-793.2783203125	-0.0	-0.0	-0.0	-0.0	-0.0	-0.0	234940.3125	-53526.234375	-4762.32421875
0.8325	-0.0	-0.0	-0.0	-0.0	-0.0	-0.0	-11.801803588867188	-1.4372614622116089	-797.195556640625	-0.0	-0.0	-0.0	-0.0	-0.0	-0.0	235749.109375	-54040.46484375	-4650.90771484375
0.833	-0.0	-0.0	-0.0	-0.0	-0.0	-0.0	-10.867963790893556	-0.8849934339523315	-801.4810791015625	-0.0	-0.0	-0.0	-0.0	-0.0	-0.0	236860.671875	-54554.55078125	-4338.90380859375
0.8335	-0.0	-0.0	-0.0	-0.0	-0.0	-0.0	-9.91106128692627	-1.2346166372299194	-802.9595336914062	-0.0	-0.0	-0.0	-0.0	-0.0	-0.0	237525.71875	-55445.5546875	-4056.82080078125
0.834	-0.0	-0.0	-0.0	-0.0	-0.0	-0.0	-8.452259063720703	-1.6781120300292969	-804.1854858398438	-0.0	-0.0	-0.0	-0.0	-0.0	-0.0	238028.640625	-56048.93359375	-3795.847412109375
0.8345	-0.0	-0.0	-0.0	-0.0	-0.0	-0.0	-6.700957298278809	-1.5445367097854614	-807.3193359375	-0.0	-0.0	-0.0	-0.0	-0.0	-0.0	238615.953125	-57041.5703125	-3373.127685546875
0.835	-0.0	-0.0	-0.0	-0.0	-0.0	-0.0	-5.058820724487305	-1.632803201675415	-808.5455932617188	-0.0	-0.0	-0.0	-0.0	-0.0	-0.0	238853.484375	-57676.76171875	-2933.914794921875
0.8355	-0.0	-0.0	-0.0	-0.0	-0.0	-0.0	-2.884328603744507	-1.7032490968704224	-809.4935302734375	-0.0	-0.0	-0.0	-0.0	-0.0	-0.0	238646.59375	-58721.16015625	-2243.35107421875
0.836	-0.0	-0.0	-0.0	-0.0	-0.0	-0.0	-1.0873585939407349	-2.4931416511535645	-809.1537475585938	-0.0	-0.0	-0.0	-0.0	-0.0	-0.0	238903.21875	-59509.3671875	-1804.150634765625
0.8365	-0.0	-0.0	-0.0	-0.0	-0.0	-0.0	-0.1344247311353683	-2.866396903991699	-809.5926513671875	-0.0	-0.0	-0.0	-0.0	-0.0	-0.0	238545.09375	-60139.60546875	-1395.0335693359375
0.837	-0.0	-0.0	-0.0	-0.0	-0.0	-0.0	0.3748705387115478	-3.817772150039673	-808.7252197265625	-0.0	-0.0	-0.0	-0.0	-0.0	-0.0	238514.015625	-61141.796875	-1201.6173095703125
0.8375	-0.0	-0.0	-0.0	-0.0	-0.0	-0.0	1.2648829221725464	-4.524233818054199	-809.6707153320312	-0.0	-0.0	-0.0	-0.0	-0.0	-0.0	238323.828125	-61880.4375	-920.8436889648438
0.838	-0.0	-0.0	-0.0	-0.0	-0.0	-0.0	2.306480407714844	-4.720538139343262	-808.29833984375	-0.0	-0.0	-0.0	-0.0	-0.0	-0.0	238035.5	-62794.96875	-548.866455078125
0.8385	-0.0	-0.0	-0.0	-0.0	-0.0	-0.0	2.7532992362976074	-5.538122653961182	-808.3765258789062	-0.0	-0.0	-0.0	-0.0	-0.0	-0.0	237733.578125	-63455.22265625	-297.1806640625
0.839	-0.0	-0.0	-0.0	-0.0	-0.0	-0.0	2.641706943511963	-6.823699951171875	-808.2860107421875	-0.0	-0.0	-0.0	-0.0	-0.0	-0.0	237687.15625	-63959.12890625	-368.9421081542969
0.8395	-0.0	-0.0	-0.0	-0.0	-0.0	-0.0	3.0428004264831543	-8.475332260131836	-811.2327270507812	-0.0	-0.0	-0.0	-0.0	-0.0	-0.0	237352.671875	-64616.859375	5.341291427612305
0.84	-0.0	-0.0	-0.0	-0.0	-0.0	-0.0	5.091681003570557	-9.312448501586914	-808.5442504882812	-0.0	-0.0	-0.0	-0.0	-0.0	-0.0	237084.109375	-65394.33984375	541.7027587890625
